<?xml version="1.0" encoding="utf-8"?>
<!-- Generator: Adobe Illustrator 16.0.4, SVG Export Plug-In . SVG Version: 6.00 Build 0)  -->
<!DOCTYPE svg PUBLIC "-//W3C//DTD SVG 1.1//EN" "http://www.w3.org/Graphics/SVG/1.1/DTD/svg11.dtd">
<svg version="1.1" id="Layer_1" xmlns="http://www.w3.org/2000/svg" xmlns:xlink="http://www.w3.org/1999/xlink" x="0px" y="0px"
	 width="30px" height="32px" viewBox="0 0 30 32" enable-background="new 0 0 30 32" xml:space="preserve">
<path d="M29.391,9.939c0-0.167-0.09-0.376-0.209-0.497c-2.008-2.025-4.03-4.038-6.04-6.061c-0.165-0.166-0.33-0.23-0.562-0.23
	c-5.76,0.007-4.759,0.004-10.517,0.004c-0.929,0.001-1.31,0.38-1.31,1.303c0,4.579,0,6.289,0,10.423l-8.93-0.003
	c-0.676,0-1.224,0.547-1.224,1.223c-0.002,0.675,0.548,1.224,1.222,1.225l8.932,0.005c0.002,3.954,0.011,5.698-0.011,10.189
	c-0.004,0.93,0.587,1.327,1.314,1.326c7.594-0.014,8.426-0.008,16.018-0.008c0.913,0,1.325-0.403,1.325-1.307
	C29.401,19.415,29.401,18.06,29.391,9.939z M27.269,10.599c0,7.067,0,7.376,0,14.442c0,0.764-0.33,1.091-1.101,1.091
	c-6.316,0-5.872,0-12.19,0c-0.777,0-1.116-0.335-1.116-1.118c0-3.73-0.001-6.153-0.001-7.682l6.037,0.003l-1.966,1.729
	c-0.507,0.447-0.555,1.221-0.11,1.729c0.242,0.274,0.581,0.416,0.92,0.416c0.286,0,0.577-0.102,0.808-0.307l4.258-3.745
	c0.123-0.071,0.239-0.159,0.334-0.275c0.43-0.523,0.354-1.294-0.167-1.723l-4.513-3.711c-0.523-0.43-1.294-0.354-1.724,0.167
	c-0.429,0.522-0.354,1.294,0.168,1.723l1.884,1.548l-5.929-0.002c0-1.509,0-3.977,0.001-7.917c0.002-0.778,0.326-1.103,1.089-1.103
	c4.773,0,2.785,0,7.557,0.001c0.105,0,0.209,0.009,0.354,0.016c0,1.028,0,2.013,0,3c0,0.139-0.005,0.279,0.006,0.417
	c0.051,0.59,0.37,0.886,0.965,0.888c1.351,0.002,2.702,0,4.052,0c0.116,0,0.233,0,0.383,0
	C27.269,10.348,27.269,10.473,27.269,10.599z"/>
</svg>
