<?xml version="1.0" encoding="utf-8"?>
<!-- Generator: Adobe Illustrator 16.0.4, SVG Export Plug-In . SVG Version: 6.00 Build 0)  -->
<!DOCTYPE svg PUBLIC "-//W3C//DTD SVG 1.1//EN" "http://www.w3.org/Graphics/SVG/1.1/DTD/svg11.dtd">
<svg version="1.1" id="Layer_1" xmlns="http://www.w3.org/2000/svg" xmlns:xlink="http://www.w3.org/1999/xlink" x="0px" y="0px"
	 width="30px" height="32px" viewBox="0 0 30 32" enable-background="new 0 0 30 32" xml:space="preserve">
<g>
	<g>
		<g>
			<path d="M20.312,16.717c-0.887-0.035-1.774,0.078-2.664,0.1c-0.211,0.004-0.502-0.043-0.621-0.186
				c-0.649-0.78-1.271-1.588-1.87-2.412c-0.104-0.146-0.097-0.419-0.062-0.62c0.116-0.736,0.268-1.468,0.407-2.2
				c-0.018-0.004-0.033-0.009-0.051-0.013c-0.012-0.225-0.012-0.451-0.043-0.672c-0.133-0.958-0.586-1.393-1.371-1.327
				c-0.715,0.06-1.219,0.625-1.096,1.517c0.127,0.929,0.479,1.824,0.699,2.742c0.073,0.305,0.137,0.663,0.049,0.943
				c-0.279,0.871-0.654,1.707-0.953,2.57c-0.353,1.014-0.937,1.719-1.94,2.178c-0.74,0.338-1.407,0.935-1.984,1.537
				c-0.547,0.571-0.26,1.377,0.485,1.653c0.566,0.212,1.091,0.035,1.459-0.379c0.624-0.698,1.161-1.479,1.756-2.209
				c0.189-0.229,0.416-0.487,0.68-0.588c1.11-0.42,2.234-0.812,3.371-1.158c0.25-0.075,0.611,0.005,0.845,0.146
				c0.892,0.537,1.812,0.873,2.862,0.74c0.791-0.103,1.201-0.496,1.205-1.181C21.477,17.275,21.036,16.748,20.312,16.717z
				 M14.154,10.48c0.348,0.506,0.187,1.064,0.103,1.613C14.033,11.571,13.796,11.045,14.154,10.48z M13.527,18.025
				c0.371-0.938,0.703-1.771,1.051-2.648c0.5,0.631,0.953,1.209,1.439,1.826C15.193,17.475,14.41,17.734,13.527,18.025z
				 M18.727,17.682c0.635,0.031,1.131,0.055,1.768,0.086C19.945,18.143,19.335,18.104,18.727,17.682z"/>
		</g>
	</g>
	<path fill-rule="evenodd" clip-rule="evenodd" d="M4.556,15.972c0-5.565,0-7.342,0-12.906c0-1.035,0.427-1.46,1.468-1.461
		c6.454,0,5.331,0.003,11.789-0.005c0.259,0,0.444,0.071,0.629,0.258c2.252,2.268,4.52,4.523,6.77,6.793
		c0.133,0.135,0.234,0.369,0.234,0.557c0.013,9.101,0.013,10.62,0.01,19.72c0,1.012-0.461,1.465-1.485,1.465
		c-8.51,0-9.442-0.007-17.953,0.009c-0.814,0.001-1.478-0.444-1.473-1.486C4.571,23.337,4.556,21.55,4.556,15.972z M17.008,4.659
		c-0.162-0.008-0.278-0.018-0.396-0.018c-5.35-0.001-3.123-0.001-8.471-0.001c-0.856,0-1.219,0.363-1.221,1.235
		c-0.002,26.909-0.002-6.683,0,20.227c0,0.878,0.38,1.253,1.25,1.253c7.081,0,6.582,0,13.664,0c0.863,0,1.233-0.366,1.233-1.223
		c0-7.92,0-8.266,0-16.188c0-0.141,0-0.281,0-0.461c-0.168,0-0.299,0-0.43,0c-1.512,0-3.027,0.003-4.542,0
		c-0.666-0.003-1.023-0.334-1.08-0.995c-0.013-0.154-0.008-0.312-0.008-0.468C17.008,6.915,17.008,5.811,17.008,4.659z"/>
</g>
</svg>
